<?xml version="1.0" encoding="UTF-8"?>
<svg width="100px" height="100px" viewBox="0 0 100 100" version="1.1" xmlns="http://www.w3.org/2000/svg" xmlns:xlink="http://www.w3.org/1999/xlink">
    <!-- Generator: Sketch 48.2 (47327) - http://www.bohemiancoding.com/sketch -->
    <title>Artboard</title>
    <desc>Created with Sketch.</desc>
    <defs></defs>
    <g id="Page-1" stroke="none" stroke-width="1" fill="none" fill-rule="evenodd">
        <g id="Artboard" fill="#4487D6" fill-rule="nonzero">
            <g id="Group" transform="translate(3.000000, 0.000000)">
                <path d="M82.6666667,98.9 L16.3,98.9 C10.7771525,98.9 6.3,94.4228475 6.3,88.9 L6.3,46.6666667 L86.6666667,46.6666667 C90.0908321,46.6666667 92.8666667,49.4425012 92.8666667,52.8666667 L92.8666667,88.7333333 C92.9124903,91.4493021 91.8514694,94.067053 89.9275751,95.98466 C88.0036808,97.9022671 85.3824709,98.9547136 82.6666667,98.9 Z M12.8333333,53.3333333 L12.8333333,88.7333333 C12.8333333,90.5742825 14.3257175,92.0666667 16.1666667,92.0666667 L82.6666667,92.0666667 C84.5076158,92.0666667 86,90.5742825 86,88.7333333 L86,53.3333333 L12.8333333,53.3333333 Z" id="Shape"></path>
                <path d="M5.9,49.2333333 L0.8,29.2333333 C0.182953147,26.947248 0.509578571,24.5091404 1.70658736,22.4660783 C2.90359614,20.4230162 4.87075431,18.9460796 7.16666667,18.3666667 L74.0333333,1.36666667 C76.305397,0.791176752 78.7130316,1.14226246 80.7261374,2.34262369 C82.7392432,3.54298492 84.1927622,5.49420197 84.7666667,7.76666667 L88.3333333,21.8666667 C89.1759348,25.1797663 87.177809,28.5497396 83.8666667,29.4 L5.9,49.2333333 Z M76.2333333,7.76666667 L75.7,7.76666667 L8.8,24.8333333 C7.64020203,25.1278852 6.93878147,26.3068687 7.23333333,27.4666667 L10.5666667,41.1 L81.8,23.0666667 L78.4666667,9.4 C78.2226789,8.4392983 77.3578668,7.76666667 76.3666667,7.76666667 L76.2333333,7.76666667 Z" id="Shape"></path>
                <rect id="Rectangle-path" transform="translate(44.421551, 24.941968) rotate(-14.260000) translate(-44.421551, -24.941968) " x="41.088218" y="14.2086349" width="6.66666667" height="21.4666667"></rect>
                <rect id="Rectangle-path" transform="translate(63.652025, 18.930783) rotate(-14.260000) translate(-63.652025, -18.930783) " x="60.3186916" y="8.1974496" width="6.66666667" height="21.4666667"></rect>
                <rect id="Rectangle-path" transform="translate(24.853320, 29.526689) rotate(-14.250000) translate(-24.853320, -29.526689) " x="21.5199863" y="18.7933554" width="6.66666667" height="21.4666667"></rect>
            </g>
        </g>
    </g>
</svg>